<svg enable-background="new 0 0 526.359 489.878" height="490" viewBox="0 0 526.359 489.878" width="527" xmlns="http://www.w3.org/2000/svg"><path d="m175.039 92.366c-2.111 0-4.198-.101-6.271-.249 19.655 25.073 32.211 63.26 32.211 106.041 0 42.298-12.273 80.106-31.547 105.188 1.856-.118 3.722-.198 5.608-.198 48.251 0 87.366 39.115 87.366 87.366 0-48.251 39.115-87.366 87.366-87.366 2.41 0 4.79.124 7.151.316-19.326-25.081-31.636-62.942-31.636-105.306 0-42.848 12.596-81.087 32.304-106.158-2.578.229-5.182.366-7.82.366-48.251 0-87.366-39.115-87.366-87.366-0 48.251-39.115 87.366-87.366 87.366z" fill="#7fd6c2"/><path d="m262.405 395.514c-2.761 0-5-2.239-5-5 0-45.417-36.949-82.366-82.366-82.366-1.59 0-3.271.06-5.291.188-1.963.125-3.807-.908-4.729-2.639s-.747-3.842.448-5.397c19.391-25.233 30.512-62.462 30.512-102.141 0-40.18-11.352-77.706-31.146-102.957-1.22-1.556-1.408-3.685-.48-5.431.927-1.747 2.795-2.786 4.77-2.641 2.269.161 4.148.236 5.917.236 45.417 0 82.366-36.949 82.366-82.366 0-2.761 2.239-5 5-5s5 2.239 5 5c0 45.417 36.949 82.366 82.366 82.366 2.333 0 4.747-.113 7.378-.347 1.98-.178 3.887.845 4.838 2.599.95 1.753.767 3.904-.466 5.472-19.85 25.252-31.235 62.819-31.235 103.068 0 39.747 11.151 77.018 30.596 102.254 1.208 1.567 1.377 3.7.433 5.438-.945 1.739-2.827 2.753-4.798 2.597-2.481-.201-4.688-.299-6.747-.299-45.417 0-82.366 36.949-82.366 82.366 0 2.761-2.238 5-5 5zm-83.255-97.275c38.645 1.7 71.197 27.263 83.255 62.276 12.205-35.44 45.412-61.197 84.674-62.328-17.116-26.434-26.793-62.251-26.793-100.029 0-38.223 9.862-74.312 27.31-100.817-39.489-.917-72.933-26.745-85.191-62.341-12.111 35.167-44.898 60.8-83.765 62.297 17.464 26.51 27.338 62.628 27.338 100.861.001 37.796-9.689 73.641-26.828 100.081z" fill="#383a48"/><path d="m262.418 391.023c-.001-.17-.013-.338-.013-.509 0 .171-.012.338-.013.509z" fill="#7fd6c2"/><path d="m262.418 396.023h-.025c-1.329 0-2.603-.529-3.541-1.47-.938-.94-1.463-2.216-1.459-3.544 0-.141.004-.28.01-.419 0-.08.002-.159.005-.238.086-2.687 2.291-4.838 4.998-4.838 2.761 0 5 2.239 5 5 .008.216.012.348.013.48.007 1.331-.516 2.61-1.454 3.554-.94.944-2.216 1.475-3.547 1.475z" fill="#383a48"/><path d="m263.179 378.323c-2.761 0-5-2.239-5-5v-219.936c0-2.761 2.239-5 5-5s5 2.239 5 5v219.936c0 2.762-2.239 5-5 5z" fill="#383a48"/><path d="m123.482 479.249c1.008 1.855 1.915 3.737 2.776 5.629 12.643-29.243 40.198-58.51 77.785-78.941 37.163-20.199 76.243-27.472 107.484-22.515-.99-1.575-1.952-3.175-2.852-4.832-23.042-42.393-7.355-95.439 35.038-118.482-42.393 23.042-95.439 7.355-118.482-35.038-1.151-2.118-2.179-4.268-3.138-6.434-12.808 28.957-40.194 57.853-77.414 78.084-37.647 20.462-77.258 27.656-108.698 22.313 1.432 2.156 2.797 4.378 4.056 6.695 23.044 42.394 7.356 95.44-35.037 118.482 42.393-23.042 95.439-7.355 118.482 35.039z" fill="#7fd6c2"/><path d="m126.258 489.878c-1.958 0-3.738-1.144-4.55-2.928-.944-2.074-1.776-3.762-2.619-5.313-21.689-39.904-71.798-54.723-111.701-33.034-2.427 1.318-5.462.421-6.781-2.005-.412-.758-.608-1.576-.608-2.382 0-1.773.945-3.492 2.613-4.398 19.33-10.506 33.411-27.911 39.65-49.009s3.889-43.362-6.617-62.692c-1.115-2.051-2.367-4.117-3.828-6.316-1.104-1.661-1.114-3.819-.027-5.492 1.087-1.672 3.063-2.539 5.03-2.204 31.667 5.379 70.109-2.556 105.473-21.777 34.923-18.981 62.343-46.578 75.229-75.713.8-1.81 2.593-2.977 4.572-2.978 1.979 0 3.771 1.166 4.573 2.976 1.007 2.274 1.975 4.26 2.959 6.07 10.506 19.33 27.911 33.412 49.009 39.65s43.362 3.889 62.692-6.618c2.425-1.318 5.461-.422 6.781 2.005.412.758.608 1.576.608 2.382 0 1.774-.945 3.492-2.613 4.399-39.903 21.689-54.722 71.798-33.033 111.701.757 1.393 1.612 2.842 2.692 4.559 1.044 1.661 1.021 3.778-.06 5.416-1.08 1.638-3.02 2.495-4.956 2.184-31.433-4.984-69.453 3.023-104.313 21.971-35.302 19.188-62.851 47.082-75.583 76.532-.785 1.814-2.564 2.997-4.542 3.016-.018-.002-.034-.002-.05-.002zm-79.692-61.26c31.657 0 62.39 16.286 79.528 45.112 14.952-28.003 41.97-53.928 75.562-72.186 33.206-18.048 69.334-26.651 100.743-24.222-16.951-34.746-10.058-75.525 14.913-102.84-13.683 2.312-27.817 1.489-41.514-2.561-22.797-6.741-41.749-21.648-53.64-42.118-15.051 27.662-41.898 53.268-75.09 71.309-33.58 18.253-70.001 26.826-101.62 24.151 10.913 21.223 13.195 45.417 6.404 68.38-4.05 13.696-11.049 26.006-20.43 36.229 5.038-.841 10.102-1.254 15.144-1.254z" fill="#383a48"/><path d="m344.155 259.854c-.149.082-.291.173-.441.254.15-.082.303-.151.453-.232z" fill="#7fd6c2"/><path d="m343.718 265.109c-1.777 0-3.498-.95-4.403-2.623-1.311-2.424-.412-5.451 2.006-6.769.005-.002.01-.005.014-.008.179-.106.292-.172.407-.235 1.167-.642 2.54-.793 3.817-.419s2.353 1.242 2.988 2.411l.012.022c.635 1.169.778 2.542.398 3.817s-1.253 2.345-2.424 2.975c-.121.065-.243.126-.365.187-.064.035-.129.068-.195.1-.721.367-1.493.542-2.255.542z" fill="#383a48"/><path d="m135.008 377.669c-1.773 0-3.491-.945-4.397-2.613-1.319-2.426-.421-5.462 2.005-6.781l193.237-105.031c2.425-1.318 5.461-.421 6.781 2.005 1.319 2.426.421 5.462-2.005 6.781l-193.237 105.031c-.759.412-1.577.608-2.384.608z" fill="#383a48"/><path d="m402.877 479.249c-1.008 1.855-1.915 3.737-2.776 5.629-12.643-29.243-40.198-58.51-77.785-78.941-37.163-20.199-76.243-27.472-107.484-22.515.99-1.575 1.952-3.175 2.852-4.832 23.042-42.393 7.355-95.439-35.038-118.482 42.393 23.042 95.439 7.355 118.482-35.038 1.151-2.118 2.179-4.268 3.138-6.434 12.808 28.957 40.194 57.853 77.414 78.084 37.647 20.462 77.258 27.656 108.698 22.313-1.432 2.156-2.797 4.378-4.056 6.695-23.042 42.393-7.355 95.439 35.038 118.482-42.395-23.042-95.441-7.355-118.483 35.039z" fill="#7fd6c2"/><path d="m400.101 489.878c-.016 0-.032 0-.048 0-1.977-.019-3.757-1.201-4.542-3.016-12.732-29.449-40.281-57.344-75.584-76.532-34.861-18.949-72.881-26.956-104.313-21.971-1.933.311-3.875-.546-4.956-2.184-1.081-1.637-1.104-3.755-.06-5.416 1.076-1.712 1.932-3.161 2.692-4.56 21.688-39.902 6.869-90.011-33.034-111.7-1.668-.907-2.614-2.625-2.613-4.398 0-.807.196-1.624.608-2.382 1.318-2.426 4.353-3.324 6.781-2.005 39.904 21.689 90.013 6.871 111.701-33.033.981-1.805 1.949-3.791 2.959-6.071.801-1.809 2.593-2.975 4.571-2.975h.001c1.979 0 3.771 1.168 4.571 2.978 12.886 29.135 40.306 56.732 75.229 75.713 35.364 19.222 73.809 27.159 105.473 21.777 1.968-.335 3.943.533 5.03 2.204 1.087 1.672 1.076 3.831-.028 5.492-1.462 2.201-2.714 4.267-3.828 6.316-10.506 19.331-12.857 41.595-6.618 62.692s20.321 38.502 39.65 49.009c1.668.907 2.614 2.625 2.613 4.398 0 .807-.196 1.624-.608 2.382-1.318 2.426-4.354 3.324-6.781 2.005-19.33-10.506-41.593-12.855-62.692-6.617-21.098 6.239-38.502 20.32-49.009 39.65-.844 1.553-1.676 3.24-2.618 5.312-.809 1.788-2.589 2.932-4.547 2.932zm-165.514-112.959c28.774 0 60.595 8.58 90.116 24.625 33.592 18.258 60.61 44.182 75.562 72.185 11.917-20.065 30.675-34.678 53.179-41.333 13.675-4.043 27.787-4.87 41.448-2.572-9.358-10.214-16.34-22.505-20.384-36.18-6.791-22.963-4.509-47.157 6.404-68.38-31.621 2.674-68.038-5.897-101.62-24.151-33.192-18.041-60.039-43.648-75.09-71.31-19.744 33.957-58.232 50.831-95.198 44.63 25.005 27.315 31.918 68.124 14.958 102.889 3.485-.27 7.032-.403 10.625-.403z" fill="#383a48"/><path d="m182.204 259.854c.149.082.291.173.441.254-.15-.082-.303-.151-.453-.232z" fill="#7fd6c2"/><g fill="#383a48"><path d="m182.64 265.109c-.788 0-1.586-.187-2.33-.579-.003-.001-.005-.003-.008-.004-.009-.005-.018-.009-.026-.014-.001 0-.001 0-.002-.001-.002-.001-.004-.002-.007-.003-.199-.1-.318-.159-.436-.223-1.173-.628-2.048-1.699-2.429-2.975s-.238-2.65.397-3.82c.635-1.168 1.715-2.047 2.991-2.421 1.275-.374 2.655-.236 3.82.404.119.065.235.133.351.202.075.041.148.083.221.126 2.309 1.358 3.146 4.312 1.861 6.687-.905 1.671-2.626 2.621-4.403 2.621z"/><path d="m391.35 377.669c-.807 0-1.625-.196-2.383-.608l-193.237-105.031c-2.426-1.319-3.324-4.354-2.005-6.781 1.318-2.426 4.354-3.324 6.781-2.005l193.237 105.031c2.426 1.319 3.324 4.354 2.005 6.781-.907 1.667-2.624 2.613-4.398 2.613z"/><path d="m154.53 284.6c.653.106 1.305.216 1.959.318 16.622 1.754 33.216 1.421 49.899 2.541 20.029 1.344 40.063 4.291 59.719 8.349 15.889 3.28 31.772 7.099 47.335 11.69 11.794 3.479 23.553 7.217 35.65 9.462 1.869.135 3.739.199 5.611.174 1.673-.411 3.33-.874 4.971-1.423 9.516-7.138 19.083-14.204 28.794-21.072-1.471-.756-2.941-1.518-4.402-2.313-16.317-8.868-30.967-19.555-43.543-31.765-.096-.093-.196-.183-.3-.269-.07-.057-.135-.114-.198-.173-6.374-18.973-9.739-40.371-9.739-61.962 0-9.654.662-19.15 1.931-28.362-28.971 3.447-54.005 19.924-69.039 43.395-15.051-23.497-40.122-39.984-69.133-43.406 1.271 9.216 1.933 18.716 1.933 28.373 0 21.554-3.353 42.908-9.702 61.853-3.831 3.223-18.435 15.355-31.746 24.59z"/></g><circle cx="343.552" cy="264.487" fill="#e0719e" r="80.372"/><path d="m343.552 349.859c-47.075 0-85.373-38.298-85.373-85.372 0-47.075 38.298-85.373 85.373-85.373 47.074 0 85.372 38.298 85.372 85.373-0 47.074-38.298 85.372-85.372 85.372zm0-160.745c-41.561 0-75.373 33.812-75.373 75.373s33.812 75.372 75.373 75.372c41.56 0 75.372-33.812 75.372-75.372s-33.812-75.373-75.372-75.373z" fill="#383a48"/><circle cx="182.807" cy="264.487" fill="#e0719e" r="80.372"/><path d="m182.807 349.859c-47.075 0-85.373-38.298-85.373-85.372 0-47.075 38.298-85.373 85.373-85.373 47.074 0 85.372 38.298 85.372 85.373 0 47.074-38.298 85.372-85.372 85.372zm0-160.745c-41.561 0-75.373 33.812-75.373 75.373s33.812 75.372 75.373 75.372 75.372-33.812 75.372-75.372-33.811-75.373-75.372-75.373z" fill="#383a48"/><circle cx="258.245" cy="353.856" fill="#e0719e" r="80.372"/><path d="m258.245 439.229c-47.074 0-85.372-38.298-85.372-85.373 0-47.074 38.298-85.372 85.372-85.372 47.075 0 85.373 38.298 85.373 85.372 0 47.075-38.298 85.373-85.373 85.373zm0-160.745c-41.56 0-75.372 33.812-75.372 75.372s33.812 75.373 75.372 75.373c41.561 0 75.373-33.812 75.373-75.373s-33.812-75.372-75.373-75.372z" fill="#383a48"/><path d="m247.207 409.43c-1.528 0-3.037-.698-4.018-2.019-1.647-2.217-1.185-5.349 1.032-6.995l22.085-16.404c2.218-1.646 5.349-1.184 6.995 1.032 1.647 2.217 1.185 5.349-1.032 6.995l-22.085 16.404c-.896.666-1.941.987-2.977.987z" fill="#383a48"/><path d="m269.284 409.43c-1.037 0-2.082-.321-2.978-.987l-22.085-16.404c-2.217-1.646-2.679-4.778-1.032-6.995 1.646-2.217 4.779-2.678 6.995-1.032l22.085 16.404c2.217 1.646 2.679 4.778 1.032 6.995-.981 1.321-2.489 2.019-4.017 2.019z" fill="#383a48"/></svg>